<svg width="964" height="19" viewBox="0 0 964 19" fill="none" xmlns="http://www.w3.org/2000/svg">
<path d="M2.00049 8.82445C8.00049 -15.1755 15.0005 33.8245 21.0005 8.82445C27.0005 -15.1755 34.0005 33.8245 40.0005 8.82445C46.0005 -15.1755 53.0005 33.8245 59.0005 8.82445C65.0005 -15.1755 72.0005 33.8245 78.0005 8.82445C84.0005 -15.1755 91.0005 33.8245 97.0005 8.82445C103 -15.1755 110 33.8245 116 8.82445C122 -15.1755 129 33.8245 135 8.82445C141 -15.1755 148 33.8245 154 8.82445C160 -15.1755 167 33.8245 173 8.82445C179 -15.1755 186 33.8245 192 8.82445C198 -15.1755 205 33.8245 211 8.82445H262C422 12.8245 702 -3.17555 962 6.82445" stroke="#8E83FF" stroke-width="4" stroke-linecap="round" stroke-linejoin="round"/>
</svg>
