<svg xmlns="http://www.w3.org/2000/svg" viewBox="0 0 24 24" fill="none">
<path d="M11.4829 4.69064L13.5701 3.3262C14.2355 2.89127 15.0926 2.89127 15.7579 3.3262L17.0401 4.16438C17.5422 4.49258 17.8451 5.0544 17.8451 5.65719C17.8451 6.33809 18.2309 6.95931 18.8388 7.25736L19.8698 7.76287C21.0141 8.3239 21.3587 9.80139 20.5821 10.8168L18.9055 13.0088M11.4829 4.69064L6.53618 5.43689C5.45509 5.59999 4.70186 6.60361 4.84106 7.69554L5.12073 9.88949M11.4829 4.69064L13.6037 7.29006M5.12073 9.88949L4.12968 10.3754C3.43857 10.7142 3 11.4205 3 12.1946V13.0178C3 13.6606 3.3231 14.2598 3.85851 14.6098C4.32285 14.9133 4.63119 15.4071 4.70168 15.9601L4.99488 18.2601C5.07424 18.8827 5.43601 19.4329 5.97417 19.7495L6.78245 20.2251C7.39558 20.5858 8.15225 20.5938 8.77276 20.2461L11.4829 18.7275M5.12073 9.88949L5.86631 10.6206C6.37329 11.1177 7.13543 11.2412 7.77165 10.9293M11.4829 18.7275L12.734 20.261C13.2586 20.904 14.1206 21.158 14.9066 20.9011L16.4055 20.4111C16.6559 20.3293 16.8879 20.1987 17.0883 20.0268L19.7435 17.7486C20.4854 17.112 20.6666 16.0309 20.1733 15.1843L18.9055 13.0088M11.4829 18.7275L10.4226 17.6878M18.9055 13.0088L16.2546 13.5287" stroke="black" stroke-width="2" stroke-linecap="round" stroke-linejoin="round"/>
</svg>